<?xml version="1.0" encoding="iso-8859-1"?>
<!-- Generator: Adobe Illustrator 17.1.0, SVG Export Plug-In . SVG Version: 6.00 Build 0)  -->
<!DOCTYPE svg PUBLIC "-//W3C//DTD SVG 1.1//EN" "http://www.w3.org/Graphics/SVG/1.1/DTD/svg11.dtd">
<svg xmlns="http://www.w3.org/2000/svg" xmlns:xlink="http://www.w3.org/1999/xlink" version="1.1" id="Capa_1" x="0px" y="0px" viewBox="0 0 512 512" style="enable-background:new 0 0 512 512;" xml:space="preserve" width="512px" height="512px">
<g>
	<path d="M437.02,74.98C388.667,26.628,324.38,0,256,0S123.333,26.628,74.98,74.98S0,187.62,0,256s26.628,132.667,74.98,181.02   S187.62,512,256,512s132.667-26.628,181.02-74.98S512,324.38,512,256S485.372,123.333,437.02,74.98z M467.829,369.062   l-41.73-24.093c12.809-24.39,20.521-51.852,21.721-80.969h48.033C494.643,301.221,485.006,336.979,467.829,369.062z M248,447.821   v48.033c-37.221-1.211-72.979-10.847-105.062-28.024l24.093-41.73C191.42,438.908,218.882,446.621,248,447.821z M264,447.821   c29.118-1.2,56.58-8.913,80.969-21.721l24.093,41.73c-32.083,17.177-67.841,26.813-105.062,28.024V447.821z M256,432   c-97.047,0-176-78.953-176-176S158.953,80,256,80s176,78.953,176,176S353.047,432,256,432z M16.146,264h48.033   c1.2,29.118,8.913,56.58,21.721,80.969l-41.73,24.093C26.994,336.979,17.357,301.221,16.146,264z M44.171,142.938l41.73,24.093   C73.092,191.42,65.379,218.882,64.179,248H16.146C17.357,210.779,26.994,175.021,44.171,142.938z M264,64.179V16.146   c37.221,1.211,72.979,10.847,105.062,28.024L344.969,85.9C320.58,73.092,293.118,65.379,264,64.179z M248,64.179   c-29.118,1.2-56.58,8.913-80.969,21.721l-24.093-41.73C175.021,26.994,210.779,17.357,248,16.146V64.179z M447.821,248   c-1.2-29.118-8.913-56.58-21.721-80.969l41.73-24.093c17.177,32.083,26.813,67.841,28.024,105.062H447.821z M459.796,129.101   l-41.714,24.083c-15.168-23.827-35.44-44.098-59.266-59.266l24.083-41.714c15.337,9.591,29.699,20.983,42.806,34.09   C438.813,99.401,450.205,113.764,459.796,129.101z M86.294,86.294c13.107-13.107,27.47-24.5,42.806-34.09l24.083,41.714   c-23.827,15.168-44.098,35.44-59.266,59.266l-41.714-24.083C61.795,113.764,73.187,99.401,86.294,86.294z M52.204,382.899   l41.714-24.083c15.168,23.827,35.44,44.098,59.266,59.266l-24.083,41.714c-15.337-9.591-29.699-20.983-42.806-34.09   C73.187,412.599,61.795,398.236,52.204,382.899z M425.706,425.706c-13.107,13.107-27.47,24.5-42.806,34.09l-24.083-41.714   c23.827-15.168,44.099-35.44,59.266-59.266l41.714,24.083C450.205,398.236,438.813,412.599,425.706,425.706z" fill="#ffa500"/>
	<path d="M362.101,158.641c1.578,1.719,3.733,2.59,5.895,2.59c1.933,0,3.872-0.697,5.408-2.107   c3.255-2.988,3.471-8.049,0.483-11.303c-3.086-3.361-6.354-6.629-9.714-9.713c-3.254-2.987-8.315-2.771-11.303,0.484   c-2.988,3.255-2.771,8.315,0.484,11.303C356.379,152.671,359.322,155.614,362.101,158.641z" fill="#ffa500"/>
	<path d="M112,256c0-79.402,64.598-144,144-144c23.799,0,47.377,5.925,68.187,17.134c3.89,2.095,8.742,0.641,10.837-3.25   c2.095-3.89,0.64-8.742-3.25-10.837C308.641,102.586,282.439,96,256,96c-88.224,0-160,71.776-160,160   c0,36.744,12.766,72.633,35.947,101.056c1.582,1.939,3.883,2.944,6.205,2.944c1.777,0,3.566-0.59,5.051-1.801   c3.424-2.792,3.936-7.832,1.144-11.256C123.487,321.368,112,289.07,112,256z" fill="#ffa500"/>
	<path d="M396.937,180.196c-2.097-3.89-6.948-5.343-10.838-3.247c-3.889,2.096-5.343,6.948-3.247,10.838   C394.07,208.602,400,232.19,400,256c0,79.402-64.598,144-144,144c-33.071,0-65.37-11.488-90.946-32.349   c-3.423-2.792-8.462-2.281-11.256,1.144c-2.792,3.424-2.281,8.463,1.144,11.256C183.365,403.233,219.254,416,256,416   c88.224,0,160-71.776,160-160C416,229.549,409.408,203.336,396.937,180.196z" fill="#ffa500"/>
	<path d="M372.706,249.53c-36.384-26.461-83.775-73.852-110.236-110.236c-1.505-2.07-3.91-3.294-6.47-3.294s-4.964,1.225-6.47,3.294   c-26.461,36.384-73.852,83.775-110.236,110.236c-2.07,1.505-3.294,3.91-3.294,6.47s1.225,4.964,3.294,6.47   c36.384,26.461,83.775,73.852,110.236,110.236c1.505,2.07,3.91,3.294,6.47,3.294s4.964-1.225,6.47-3.294   c26.461-36.384,73.852-83.775,110.236-110.236c2.07-1.505,3.294-3.91,3.294-6.47S374.775,251.036,372.706,249.53z M256,354.688   c-26.044-33.604-65.084-72.644-98.688-98.688c33.604-26.044,72.644-65.084,98.688-98.688   c26.044,33.604,65.084,72.644,98.688,98.688C321.084,282.044,282.044,321.084,256,354.688z" fill="#ffa500"/>
</g>
<g>
</g>
<g>
</g>
<g>
</g>
<g>
</g>
<g>
</g>
<g>
</g>
<g>
</g>
<g>
</g>
<g>
</g>
<g>
</g>
<g>
</g>
<g>
</g>
<g>
</g>
<g>
</g>
<g>
</g>
</svg>
