<?xml version="1.0" encoding="utf-8"?>
<!-- Generator: Adobe Illustrator 21.0.0, SVG Export Plug-In . SVG Version: 6.00 Build 0)  -->
<svg version="1.1" id="Layer_1" xmlns="http://www.w3.org/2000/svg" xmlns:xlink="http://www.w3.org/1999/xlink" x="0px" y="0px"
	 viewBox="0 0 1406.2 223.4" style="enable-background:new 0 0 1406.2 223.4;" xml:space="preserve">
<style type="text/css">
	.st0{display:none;fill:#202020;}
	.st1{fill:#F7931E;}
	.st2{fill:#999999;}
	.st3{fill:#FBB03B;}
	.st4{fill:#202020;}
	.st5{fill:#FFFFFF;}
</style>
<rect x="-295.1" y="-888.6" class="st0" width="1998.2" height="2000.2"/>
<g>
	<g>
		<path class="st1" d="M396.2,137.6c0,9.9-3.5,18.4-10.5,25.4c-7,7-15.4,10.5-25.3,10.5h-72.7c-9.9,0-18.3-3.5-25.3-10.5
			c-7-7-10.5-15.4-10.5-25.4V90.2c0-9.9,3.5-18.4,10.5-25.3c7-7,15.4-10.5,25.3-10.5h72.7c9.9,0,18.3,3.5,25.3,10.5
			c7,7,10.5,15.4,10.5,25.3V137.6z M369.5,137.7V90c0-2.5-0.9-4.7-2.6-6.5c-1.7-1.8-3.8-2.7-6.4-2.7h-73c-2.4,0-4.5,0.9-6.3,2.7
			c-1.8,1.8-2.6,3.9-2.6,6.5v47.7c0,2.6,0.9,4.7,2.6,6.5c1.8,1.8,3.9,2.7,6.3,2.7h73c2.5,0,4.7-0.9,6.4-2.7
			C368.6,142.4,369.5,140.3,369.5,137.7z"/>
		<path class="st1" d="M513.5,173.4c-5.1-1.3-9.5-3.9-13.2-7.8c-7,5.2-15.6,7.8-25.6,7.8H448c-9.9,0-18.3-3.5-25.3-10.5
			c-7-7-10.5-15.4-10.5-25.3v-20.8c0-9.9,3.5-18.3,10.5-25.3c7-7,15.4-10.5,25.3-10.5h16.3c10.2,0,17.7,4.6,22.4,13.7v-45l26.7-8.9
			V173.4z M486.7,141.1v-20.9c0-3-1.2-5.8-3.7-8.4c-2.5-2.6-5.4-3.9-8.7-3.9h-26.5c-2.4,0-4.5,0.9-6.3,2.6c-1.8,1.8-2.6,3.9-2.6,6.3
			v20.9c0,2.5,0.9,4.7,2.6,6.5c1.7,1.8,3.8,2.6,6.4,2.6h33.1C484.8,146.9,486.7,144.9,486.7,141.1z"/>
		<path class="st1" d="M632.4,173.4c-5.1-1.3-9.5-3.9-13.2-7.8c-7,5.2-15.6,7.8-25.6,7.8h-26.7c-9.9,0-18.3-3.5-25.3-10.5
			c-7-7-10.5-15.4-10.5-25.3v-20.8c0-9.9,3.5-18.3,10.5-25.3c7-7,15.4-10.5,25.3-10.5h16.3c10.2,0,17.7,4.6,22.4,13.7v-45l26.7-8.9
			V173.4z M605.6,141.1v-20.9c0-3-1.2-5.8-3.7-8.4c-2.5-2.6-5.4-3.9-8.7-3.9h-26.5c-2.4,0-4.5,0.9-6.3,2.6c-1.8,1.8-2.6,3.9-2.6,6.3
			v20.9c0,2.5,0.9,4.7,2.6,6.5c1.7,1.8,3.8,2.6,6.4,2.6h33.1C603.7,146.9,605.6,144.9,605.6,141.1z"/>
		<path class="st2" d="M777.7,137.1c0,5.3-1.2,10.3-3.5,15c-7.3,14.2-21.2,21.3-41.7,21.3h-82v-26.6h86.9c3.3,0,6.1-0.8,8.5-2.5
			c2.4-1.7,3.5-4.1,3.5-7.2c0-3.1-1.2-5.6-3.6-7.4c-2.4-1.8-5.2-2.7-8.4-2.7h-47.2c-19.6,0-33-7-40.2-21.1c-2.4-4.8-3.6-10-3.6-15.5
			c0-5.4,1.2-10.5,3.6-15.3c7.1-13.9,20.6-20.8,40.2-20.8h81.6v26.6H686c-3.3,0-6.1,0.8-8.4,2.3c-2.8,1.8-4.1,4.3-4.1,7.5
			c0,3.1,1.4,5.6,4.1,7.5c2.3,1.5,5.1,2.2,8.4,2.2h46.5c9,0,17,1.7,24.1,4.9c8,3.8,13.9,9.5,17.5,16.8
			C776.5,127,777.7,132,777.7,137.1z"/>
		<path class="st2" d="M816.6,173.4h-26.7V49.7l26.7-8.9V173.4z"/>
		<path class="st2" d="M860.1,62.4h-26.7v-17h26.7V62.4z M860.1,173.4h-26.7V81.1h26.7V173.4z"/>
		<path class="st2" d="M980.7,173.4H954v-56.6c0-2.4-0.9-4.5-2.6-6.3c-1.8-1.8-3.9-2.6-6.3-2.6h-29.5c-8.3,0-12.4,4.1-12.4,12.2
			v53.3h-26.7V81.1h26.7v14.8c1.9-4.2,4.9-7.7,9.2-10.6c4.2-2.9,8.7-4.3,13.3-4.3h19.3c9.9,0,18.3,3.5,25.3,10.5
			c7,7,10.5,15.4,10.5,25.3V173.4z"/>
		<path class="st2" d="M1103.1,160.8c0,13.1-5.6,23.8-16.7,32.2c-10.2,7.6-22.1,11.1-35.6,10.6c-3.5-0.1-8.8-0.3-15.8-0.7l3.6-22.4
			c1.8,0.2,4.5,0.5,8.1,1c10,0.7,17.9-1.3,23.7-6c6.3-5,9.4-12.4,9.4-22.2c-2.6,5.6-6.6,9.8-11.9,12.5c-5.3,2.7-11.9,4-20,4h-16.3
			c-9.9,0-18.3-3.4-25.3-10.3c-7-6.9-10.5-15.2-10.5-25v-17.6c0-9.9,3.5-18.3,10.5-25.3c7-7,15.4-10.5,25.3-10.5h22.3
			c4.9,0,9.5,1.2,13.5,3.6c4.6,2.5,7.6,6,8.9,10.4v-14h26.7V160.8z M1076.3,127.6v-5.8c0-4-1.5-7.3-4.4-9.9c-2.9-2.6-6.6-4-11.2-4
			h-29.3c-2.4,0-4.5,0.9-6.3,2.6c-1.8,1.8-2.6,3.9-2.6,6.3v19c0,2.4,0.9,4.8,2.6,7c1.8,2.3,3.9,3.4,6.3,3.4h23.3
			c7.4,0,13-2,16.7-5.9C1074.7,137,1076.3,132.8,1076.3,127.6z"/>
		<path class="st2" d="M1223.1,134.8h-80.5v2.8c0,2.5,0.9,4.8,2.6,6.7c1.8,1.9,3.8,2.9,6.3,2.9h68.9l-3.3,26.2h-65.6
			c-9.9,0-18.3-3.5-25.2-10.5c-6.9-7-10.4-15.4-10.4-25.3v-20.8c0-9.9,3.5-18.3,10.5-25.3c7-7,15.4-10.5,25.2-10.5h35.8
			c9.9,0,18.3,3.5,25.3,10.5c7,7,10.5,15.4,10.5,25.3V134.8z M1196.4,119.8v-4.5c0-2.4-0.9-4.5-2.6-6.4c-1.8-1.8-3.9-2.7-6.3-2.7
			h-35.9c-2.4,0-4.5,0.9-6.3,2.7c-1.8,1.8-2.6,3.9-2.6,6.4v4.5H1196.4z"/>
		<path class="st2" d="M1296,81.1l-3,26.6c-6.7-4-12.4-5.4-17.1-4.5c-8.5,2-12.8,10.7-12.8,26.1v44.4h-26.7V81.1h26.7v13.7
			c2.8-7.1,7.2-11.7,13-13.7c3.4-1.2,7.4-1.6,12-1.2C1290.4,80,1293.1,80.4,1296,81.1z"/>
		<path class="st2" d="M1406.2,144.9c0,4.4-1,8.5-3.1,12.4c-6,10.8-17.2,16.2-33.3,16.2h-67.3l3.3-26.6h63c5.1,0,7.6-2,7.6-6
			c0-3.8-2.5-5.7-7.6-5.7h-30.8c-22.4,0-33.6-8.3-33.6-24.9c0-4.3,1-8.3,3.1-12c6.4-11.4,18.5-17.2,36.4-17.2h56.4L1397,108H1341
			c-5.2,0-7.6,2-7.4,5.9c0.2,3.9,2.7,5.8,7.4,5.8h30.2C1394.5,119.7,1406.2,128.1,1406.2,144.9z"/>
	</g>
	<g>
		<g>
			<path class="st1" d="M111.7,223.4C50.1,223.4,0,173.3,0,111.7C0,50.1,50.1,0,111.7,0c61.6,0,111.7,50.1,111.7,111.7
				C223.4,173.3,173.3,223.4,111.7,223.4z M111.7,27.7c-46.3,0-84,37.7-84,84c0,46.3,37.7,84,84,84c46.3,0,84-37.7,84-84
				C195.7,65.4,158,27.7,111.7,27.7z"/>
		</g>
		<path class="st3" d="M111.7,31.4c-44.3,0-80.3,36-80.3,80.3c0,44.3,36,80.3,80.3,80.3c44.3,0,80.3-36,80.3-80.3
			C192,67.4,156,31.4,111.7,31.4z"/>
		<g>
			<path class="st4" d="M22.3,85.7c1.2-4,2.6-8,4.3-11.7l-8.3-8.3c-3.1,6.4-5.7,13.1-7.5,20.1H22.3z"/>
			<path class="st4" d="M68.5,29.3c4-2.1,8.3-4,12.6-5.5V12.1c-7.3,2.2-14.3,5.3-20.8,9L68.5,29.3z"/>
			<path class="st4" d="M142.3,23.8c4.2,1.5,8.3,3.2,12.2,5.3l8.2-8.2c-6.4-3.6-13.2-6.6-20.3-8.8V23.8z"/>
			<path class="st4" d="M29.8,156.1c-1.6-3-3.1-6.1-4.4-9.2H13.6c2.2,6.1,4.9,11.9,8.1,17.3L29.8,156.1z"/>
			<path class="st4" d="M82.8,200.2c-2.6-0.9-5.2-1.8-7.7-2.9l-8.4,8.4c5.1,2.5,10.5,4.5,16.1,6.1V200.2z"/>
			<path class="st4" d="M196.6,73.4c1.5,3.4,2.9,6.9,4,10.5h11.5c-1.8-6.6-4.2-12.8-7.2-18.8L196.6,73.4z"/>
			<path class="st4" d="M198.6,145.1c-1.1,2.8-2.3,5.5-3.6,8.2l8.2,8.2c2.9-5.2,5.2-10.7,7.2-16.4H198.6z"/>
			<path class="st4" d="M151.1,196c-2.3,1.1-4.7,2.1-7.1,3v11.7c5.3-1.7,10.5-3.9,15.4-6.5L151.1,196z"/>
		</g>
		<g>
			<path class="st5" d="M88,20.2c7.6-2,15.5-3,23.7-3c8.2,0,16.1,1,23.7,3v-8.5c-7.6-1.8-15.5-2.8-23.7-2.8c-8.1,0-16.1,1-23.7,2.8
				V20.2z"/>
			<path class="st5" d="M206.2,111.7c0,9.2-1.3,18.1-3.8,26.5h8.6c2.3-8.5,3.5-17.3,3.5-26.5c0-7.1-0.7-14.1-2.1-20.8h-8.5
				C205.4,97.6,206.2,104.5,206.2,111.7z"/>
			<path class="st5" d="M161.7,31.6c13.6,8.5,24.8,20.3,32.6,34.3l6.1-6.1c-8.1-13.8-19.3-25.5-32.7-34.3L161.7,31.6z"/>
			<path class="st5" d="M28.8,66.3c7.7-14.1,18.9-25.9,32.4-34.5l-6-6c-13.3,8.8-24.5,20.6-32.5,34.4L28.8,66.3z"/>
			<path class="st5" d="M137.1,202.7c-8.1,2.3-16.6,3.5-25.4,3.5c-7.6,0-14.9-0.9-21.9-2.6v8.5c7.1,1.5,14.4,2.4,21.9,2.4
				c8.8,0,17.3-1.1,25.4-3.2V202.7z"/>
			<path class="st5" d="M192.5,160.7c-8.3,13.7-20,25.1-33.9,33l6.1,6.1c13.7-8.3,25.3-19.6,33.8-33.1L192.5,160.7z"/>
			<path class="st5" d="M67.5,195.2c-14.2-7.5-26.2-18.6-34.9-32l-6,6c8.9,13.2,20.9,24.2,34.8,32.1L67.5,195.2z"/>
			<path class="st5" d="M17.2,111.7c0-6.5,0.7-12.9,1.9-19.1h-8.4c-1.2,6.2-1.8,12.6-1.8,19.1c0,9.8,1.4,19.2,4,28.2h8.6
				C18.7,131,17.2,121.5,17.2,111.7z"/>
		</g>
		<g>
			<path d="M100.1,100.1c0-11.8,4.2-21.8,12.7-30.1c8.5-8.3,18.6-12.4,30.5-12.4h31.3c0,6.1-2.1,11.2-6.4,15.4
				c-4.3,4.2-9.4,6.3-15.5,6.3h-4.8c-7,0-12.9,2.5-17.9,7.5c-4.9,5-7.4,11.1-7.4,18.1v18.9c0,11.8-4.2,21.8-12.6,30.1
				s-18.6,12.4-30.4,12.4H48.3c0-6,2.1-11.1,6.3-15.3c4.2-4.2,9.3-6.3,15.3-6.3h4.9c7.1,0,13-2.5,17.9-7.5c4.9-5,7.3-11.1,7.3-18.1
				V100.1z"/>
			<g>
				<path d="M52.2,148.6c3.5-3.5,7.5-5.7,12.1-6.7C58.8,133,56,123,56,111.9c0-15.4,5.4-28.9,16.1-40C82.8,60.7,96.1,55,111.6,55
					c5.3,0,10.3,0.7,15.1,2c5.2-1.9,10.7-2.9,16.6-2.9h18c-14.2-12.2-30.5-18.2-49.7-18.2c-21.2,0-38.9,7.3-54.1,22.3
					C42.3,73.2,35,90.8,35,111.9c0,16.1,4.3,30,13,42.3C49.1,152.2,50.5,150.3,52.2,148.6z"/>
				<path d="M175.2,69.2c-1.2,2.2-2.7,4.3-4.6,6.1c-3.4,3.3-7.2,5.4-11.6,6.5c5.6,8.9,8.4,19,8.4,30.1c0,15.4-5.5,28.8-16.2,39.8
					c-10.8,11-24.1,16.6-39.6,16.6c-5.1,0-10-0.6-14.7-1.9c-5.4,2.1-11.1,3.2-17.3,3.2H62.3c14.1,11.9,30.3,17.8,49.3,17.8
					c21.2,0,38.9-7.2,54.2-22.1c15.2-14.8,22.6-32.3,22.6-53.5C188.4,95.7,184.1,81.7,175.2,69.2z"/>
			</g>
		</g>
	</g>
</g>
</svg>
